<svg width="166" height="104" viewBox="0 0 166 104" fill="none" xmlns="http://www.w3.org/2000/svg">
<path d="M5 68L0.31269 78.5528L11.7954 77.3357L5 68ZM163.995 68.1039C165.166 56.8926 165.579 44.2636 164.476 33.0211C163.38 21.8356 160.765 11.8036 155.704 5.99315C153.141 3.05076 149.932 1.17163 146.001 0.812706C142.097 0.456287 137.602 1.60972 132.456 4.48312C122.188 10.217 109.018 22.9762 92.2 45.4L93.8 46.6C110.582 24.2238 123.545 11.7497 133.431 6.22932C138.363 3.47564 142.45 2.49678 145.819 2.80442C149.161 3.10956 151.917 4.69085 154.196 7.30679C158.818 12.613 161.395 22.0894 162.486 33.2163C163.571 44.2864 163.167 56.774 162.005 67.8961L163.995 68.1039ZM92.2 45.4C77.0783 65.5622 64.4098 79.2285 53.8572 87.9743C43.289 96.733 34.9341 100.481 28.4314 100.978C22.0092 101.47 17.2632 98.801 13.7925 94.3414C10.287 89.8372 8.08925 83.501 6.93391 76.7779L4.9628 77.1166C6.14629 84.0036 8.42585 90.7021 12.2142 95.5698C16.0372 100.482 21.4015 103.522 28.584 102.972C35.686 102.429 44.4302 98.3848 55.1334 89.5142C65.8522 80.6306 78.6276 66.8299 93.8 46.6L92.2 45.4Z" fill="black"/>
</svg>
